<!DOCTYPE svg PUBLIC "-//W3C//DTD SVG 1.1//EN" "http://www.w3.org/Graphics/SVG/1.1/DTD/svg11.dtd">
<!-- Uploaded to: SVG Repo, www.svgrepo.com, Transformed by: SVG Repo Mixer Tools -->
<svg height="64px" width="64px" version="1.1" id="Layer_1" xmlns="http://www.w3.org/2000/svg" xmlns:xlink="http://www.w3.org/1999/xlink" viewBox="0 0 512 512" xml:space="preserve" fill="#000000">
<g id="SVGRepo_bgCarrier" stroke-width="0"/>
<g id="SVGRepo_tracerCarrier" stroke-linecap="round" stroke-linejoin="round"/>
<g id="SVGRepo_iconCarrier"> <path style="fill:#53B400;" d="M256.021,40.538l-20.899,171.198l20.899,171.198c94.55,0,171.198-76.647,171.198-171.198 S350.571,40.538,256.021,40.538z"/> <path style="fill:#6CD800;" d="M84.823,211.736c0,94.551,76.648,171.198,171.198,171.198V40.538 C161.47,40.538,84.823,117.185,84.823,211.736z"/> <polygon style="fill:#E68900;" points="256,512 311.841,512 309.198,458.103 235.101,437.203 "/> <g> <polygon style="fill:#FFAD00;" points="202.803,458.103 200.159,512 256,512 256,437.203 "/> <polygon style="fill:#FFAD00;" points="462.31,155.53 299.626,168.09 312.186,0 256,0 235.101,211.736 256,458.103 309.198,458.103 299.251,255.381 462.31,267.971 "/> </g> <g> <polygon style="fill:#FFCE2A;" points="256,0 199.815,0 212.376,168.09 49.69,155.53 49.69,267.971 212.75,255.381 202.803,458.103 256,458.103 "/> <polygon style="fill:#FFCE2A;" points="271.694,196.063 271.694,63.048 256,63.048 245.55,211.736 256,360.424 271.694,360.424 271.694,227.41 404.709,227.41 404.709,196.063 "/> </g> <polygon style="fill:#FDEB95;" points="240.347,63.048 240.347,196.063 107.333,196.063 107.333,227.41 240.347,227.41 240.347,360.424 256,360.424 256,63.048 "/> </g>
</svg>